#!OML:ASF Y:\EmotionMaleHayes\Project 1\Capture day 1\Session 1\Male1.ASF
:FULLY-SPECIFIED
:DEGREES
305
root 48.1872 17.8313 -1.9835 -25.1488 82.6812 -27.4743
lowerback 9.61035 7.07403 5.13256
upperback -0.18618 9.96598 -0.697704
thorax -4.53743 4.81133 -4.81039
lowerneck -30.6974 -3.24988 -1.39275
upperneck 19.2516 -4.14033 1.03999
head 11.3043 -1.82524 -0.134669
rclavicle -3.41537e-014 -1.35174e-014
rhumerus -31.8124 21.1719 -91.5983
rradius 114.224
rwrist -23.5542
rhand -31.6611 -18.8497
rfingers 7.12502
rthumb -4.92151 -48.7726
lclavicle -3.41537e-014 -1.35174e-014
lhumerus -98.3617 -16.8523 96.7854
lradius 102.413
lwrist 34.4165
lhand -30.1377 -22.8281
lfingers 7.12502
lthumb -3.45046 7.12368
rfemur 21.5237 3.94681 22.7388
rtibia 30.4146
rfoot -3.38777 -10.4739
rtoes 21.5468
lfemur -25.9643 6.17066 -14.4165
ltibia 25.0883
lfoot 3.34343 7.7994
ltoes -3.28145
306
root 48.5996 17.8517 -1.97866 -24.9885 82.4529 -27.385
lowerback 9.1869 7.15164 4.8587
upperback -0.248531 10.0188 -0.685506
thorax -4.40994 4.84862 -4.60059
lowerneck -30.5486 -3.21884 -1.2788
upperneck 19.2103 -4.13334 0.98028
head 11.2591 -1.82312 -0.171411
rclavicle -1.60643e-014 1.21259e-014
rhumerus -32.6792 21.4499 -92.1095
rradius 114.737
rwrist -22.9482
rhand -31.3537 -18.8292
rfingers 7.12502
rthumb -4.62465 -48.7588
lclavicle -1.60643e-014 1.21259e-014
lhumerus -98.4452 -16.8216 96.3659
lradius 102.957
lwrist 34.095
lhand -30.0857 -23.155
lfingers 7.12502
lthumb -3.40023 6.7976
rfemur 21.1283 4.28627 22.9176
rtibia 33.4724
rfoot -3.68698 -11.4701
rtoes 20.613
lfemur -24.9136 6.37538 -14.1277
ltibia 21.098
lfoot 3.76912 7.43059
ltoes 1.73213
307
root 49.0049 17.8424 -1.99456 -21.6935 82.5798 -24.0817
lowerback 8.96362 7.17686 4.32846
upperback -0.28044 9.97706 -0.870916
thorax -4.37889 4.83944 -4.47596
lowerneck -30.7455 -3.58512 -2.17275
upperneck 19.4543 -4.47898 1.83975
head 11.4363 -1.92313 0.223722
rclavicle 1.59028e-015 -4.96962e-015
rhumerus -33.6873 21.5522 -92.7063
rradius 115.211
rwrist -22.21
rhand -31.1476 -18.1826
rfingers 7.12502
rthumb -4.42565 -48.1163
lclavicle 1.59028e-015 -4.96962e-015
lhumerus -98.3242 -16.859 95.9814
lradius 103.434
lwrist 33.6593
lhand -30.0439 -23.435
lfingers 7.12502
lthumb -3.35983 6.51831
rfemur 20.7421 4.26187 22.1717
rtibia 36.7168
rfoot -3.37263 -11.0217
rtoes 13.6692
lfemur -23.9341 6.33965 -14.7457
ltibia 17.2139
lfoot 4.21256 7.43329
ltoes 0.452138
308
root 49.4106 17.8196 -2.01209 -19.1508 82.7019 -21.5696
lowerback 8.41633 7.14614 3.9213
upperback -0.136636 9.86368 -1.00894
thorax -3.97791 4.81053 -4.29631
lowerneck -30.978 -3.66717 -2.34517
upperneck 19.4941 -4.56845 2.05234
head 11.5037 -1.94377 0.311217
rclavicle -3.27995e-015 -1.19271e-014
rhumerus -34.3211 22.0272 -93.1009
rradius 115.432
rwrist -21.6822
rhand -31.2771 -17.8367
rfingers 7.12502
rthumb -4.55071 -47.7679
lclavicle -3.27995e-015 -1.19271e-014
lhumerus -97.7675 -16.7832 95.5653
lradius 103.757
lwrist 33.0742
lhand -30.0864 -23.8421
lfingers 7.12502
lthumb -3.40086 6.11052
rfemur 20.3948 4.39785 21.6475
rtibia 39.8104
rfoot -3.49505 -11.5267
rtoes 21.9756
lfemur -23.2289 6.41403 -15.3527
ltibia 14.2221
lfoot 3.67123 7.85497
ltoes 1.32978
309
root 49.8135 17.7834 -2.02799 -13.6885 82.9601 -16.1229
lowerback 8.25621 7.15863 3.08525
upperback -0.242168 9.78597 -1.23168
thorax -4.10518 4.78142 -4.06155
lowerneck -31.001 -3.74188 -2.45281
upperneck 19.6247 -4.64743 2.126
head 11.5646 -1.97577 0.340202
rclavicle 3.49116e-014 -7.95139e-015
rhumerus -35.5893 22.0796 -93.692
rradius 115.847
rwrist -21.2017
rhand -31.2489 -17.7711
rfingers 7.12502
rthumb -4.52346 -47.7028
lclavicle 3.49116e-014 -7.95139e-015
lhumerus -97.5286 -16.7511 95.4248
lradius 104.011
lwrist 32.3428
lhand -30.301 -24.5071
lfingers 7.12502
lthumb -3.6081 5.44212
rfemur 19.9682 4.516 20.6889
rtibia 42.9936
rfoot -3.37263 -11.054
rtoes 20.8025
lfemur -22.6948 6.75528 -16.5263
ltibia 12.0743
lfoot 3.79884 8.33057
ltoes 3.55027
310
root 50.2133 17.7254 -2.03666 -15.9424 82.9068 -18.1083
lowerback 8.24866 7.08783 3.12778
upperback -0.132404 9.70032 -1.08928
thorax -4.01133 4.74375 -3.92055
lowerneck -31.1857 -3.73885 -2.52586
upperneck 19.6092 -4.60071 2.11234
head 11.5904 -1.96093 0.353253
rclavicle 1.13307e-013 -5.56597e-015
rhumerus -36.5842 22.2048 -94.1575
rradius 115.983
rwrist -20.8619
rhand -31.2486 -17.4094
rfingers 7.12502
rthumb -4.52315 -47.3411
lclavicle 1.13307e-013 -5.56597e-015
lhumerus -96.8915 -16.625 95.236
lradius 104.268
lwrist 31.3994
lhand -30.565 -24.8534
lfingers 7.12502
lthumb -3.86312 5.09131
rfemur 19.6238 4.71144 21.13
rtibia 46.6647
rfoot -3.45271 -10.7466
rtoes 19.9168
lfemur -21.9644 7.80701 -16.4896
ltibia 10.602
lfoot 3.62718 9.3351
ltoes 5.35471
